<?xml version="1.0" encoding="utf-8"?>
<!-- Generator: Adobe Illustrator 15.1.0, SVG Export Plug-In . SVG Version: 6.00 Build 0)  -->
<!DOCTYPE svg PUBLIC "-//W3C//DTD SVG 1.1//EN" "http://www.w3.org/Graphics/SVG/1.1/DTD/svg11.dtd">
<svg version="1.1" id="Layer_1" xmlns="http://www.w3.org/2000/svg" xmlns:xlink="http://www.w3.org/1999/xlink" x="0px" y="0px"
	 width="841.889px" height="250px" viewBox="0 125.14 841.889 250" enable-background="new 0 125.14 841.889 250"
	 xml:space="preserve">
<path fill="#41C19D" d="M16.688,178.42v84.005c0,57.419,83.298,91.784,83.298,91.784V147.731L16.688,178.42z"/>
<path fill="#2F988C" d="M183.283,262.425v-84.146L99.986,147.59v206.479C99.986,354.349,183.283,319.844,183.283,262.425z"/>
<path fill="#647A8A" d="M16.688,262.425v-84.146l83.298-30.688v-19.092L0,166.823v95.602c0,72.691,99.984,110.877,99.984,110.877
	V354.35C99.986,354.349,16.688,319.844,16.688,262.425z"/>
<path fill="#3A5569" d="M99.986,147.731l83.299,30.688v84.005c0,57.419-83.299,91.785-83.299,91.785v19.232
	c0,0,99.986-38.185,99.986-110.876v-95.603L99.986,128.78V147.731z"/>
<path fill="#FFFFFF" d="M66.469,222.685l-16.971,16.971l50.771,50.629v-33.8L66.469,222.685z"/>
<path fill="#E1E6E8" d="M156.555,200.199l-56.286,56.286v33.8l73.115-73.115L156.555,200.199z"/>
<g>
	<path fill="#395469" d="M304.484,201.048c-3.96,3.254-9.616,4.949-16.971,4.949h-14.001v24.325h-14.001v-67.459h28.991
		c6.646,0,12.021,1.697,15.98,5.233c3.959,3.534,5.939,8.908,5.939,16.122C310.281,192.137,308.443,197.795,304.484,201.048z
		 M293.735,176.864c-1.838-1.556-4.241-2.263-7.495-2.263h-12.728V194.4h12.728c3.254,0,5.8-0.848,7.495-2.403
		c1.839-1.556,2.688-4.102,2.688-7.777C296.422,180.824,295.432,178.278,293.735,176.864L293.735,176.864z M364.87,164.56
		c2.546,1.132,4.525,2.688,6.363,4.809c1.414,1.697,2.546,3.535,3.396,5.656c0.849,2.122,1.271,4.385,1.271,7.071
		c0,3.253-0.849,6.363-2.403,9.476c-1.556,3.112-4.242,5.374-8.062,6.506c3.111,1.272,5.374,2.97,6.646,5.374
		c1.271,2.263,1.979,5.798,1.979,10.606v4.524c0,3.111,0.143,5.092,0.425,6.224c0.425,1.696,1.272,2.97,2.546,3.817v1.697h-15.557
		c-0.425-1.556-0.707-2.688-0.99-3.535c-0.425-1.839-0.564-3.817-0.564-5.799l-0.143-6.223c0-4.385-0.849-7.214-2.263-8.627
		c-1.414-1.414-4.102-2.121-8.062-2.121h-13.719v26.445h-13.858v-67.459h32.244C358.931,162.863,362.466,163.57,364.87,164.56
		L364.87,164.56z M335.738,174.601v18.103h15.133c2.971,0,5.232-0.425,6.789-1.132c2.687-1.272,3.96-3.818,3.96-7.637
		c0-4.103-1.273-6.788-3.818-8.202c-1.415-0.85-3.678-1.132-6.506-1.132H335.738z M441.38,224.383
		c-5.092,5.232-12.445,7.92-22.203,7.92c-9.617,0-16.972-2.546-22.203-7.92c-6.788-6.506-10.324-15.697-10.324-27.859
		c0-12.304,3.396-21.638,10.324-27.86c5.091-5.231,12.444-7.92,22.203-7.92c9.616,0,16.971,2.546,22.203,7.92
		c6.788,6.224,10.183,15.415,10.183,27.86C451.563,208.543,448.168,217.877,441.38,224.383z M432.471,214.058
		c3.252-4.103,4.949-10.041,4.949-17.536s-1.697-13.437-4.949-17.536c-3.253-4.103-7.778-6.223-13.294-6.223
		c-5.517,0-10.041,2.12-13.437,6.223c-3.394,4.101-4.949,10.041-4.949,17.536c0,7.637,1.696,13.435,4.949,17.536
		c3.396,4.102,7.778,6.223,13.437,6.223S429.218,218.16,432.471,214.058z M501.768,164.277c4.809,1.556,8.485,4.385,11.455,8.486
		c2.404,3.394,3.96,6.93,4.809,10.889c0.85,3.96,1.272,7.637,1.272,11.173c0,8.909-1.838,16.547-5.374,22.77
		c-4.949,8.345-12.445,12.587-22.628,12.587h-29.133v-67.458h29.133C495.545,162.863,499.079,163.429,501.768,164.277z
		 M475.887,174.601v43.981h13.012c6.646,0,11.313-3.253,14-9.898c1.415-3.535,2.122-7.92,2.122-12.869
		c0-6.93-1.132-12.163-3.253-15.84c-2.121-3.678-6.506-5.517-12.869-5.517h-13.012V174.601L475.887,174.601z M529.909,162.863
		h14.284v41.438c0,4.667,0.565,8.061,1.697,10.182c1.697,3.819,5.374,5.657,11.172,5.657c5.657,0,9.334-1.838,11.031-5.657
		c1.132-2.121,1.697-5.515,1.697-10.182v-41.438h14.282v41.438c0,7.212-1.131,12.728-3.394,16.828
		c-4.103,7.354-12.021,11.031-23.76,11.031c-11.737,0-19.517-3.678-23.76-11.031c-2.263-3.96-3.394-9.616-3.394-16.828
		L529.909,162.863z M604.156,169.934c5.374-5.517,12.305-8.345,20.789-8.345c11.314,0,19.375,3.678,24.608,11.174
		c2.828,4.101,4.384,8.344,4.666,12.586h-14.143c-0.849-3.253-1.979-5.656-3.395-7.354c-2.545-2.971-6.224-4.385-11.172-4.385
		c-4.95,0-9.053,2.122-11.88,6.223c-2.971,4.103-4.385,10.041-4.385,17.537c0,7.495,1.557,13.293,4.525,16.971
		c3.111,3.818,6.93,5.656,11.597,5.656c4.81,0,8.485-1.556,11.031-4.809c1.414-1.696,2.545-4.384,3.535-7.777h14.001
		c-1.132,7.354-4.243,13.293-9.334,17.96c-4.95,4.526-11.313,6.931-19.092,6.931c-9.617,0-17.112-3.111-22.628-9.334
		c-5.517-6.223-8.202-14.85-8.202-25.738C594.683,185.349,597.935,176.299,604.156,169.934L604.156,169.934z M714.467,162.863v11.88
		h-20.224v55.579h-14.143v-55.579h-20.224v-11.88H714.467L714.467,162.863z M304.484,296.366c-1.132-4.525-3.678-7.777-7.777-9.616
		c-2.404-0.989-4.95-1.556-7.778-1.556c-5.374,0-9.9,1.979-13.436,6.081c-3.536,4.102-5.232,10.324-5.232,18.526
		c0,8.344,1.838,14.143,5.657,17.536c3.817,3.395,8.061,5.092,12.869,5.092c4.808,0,8.627-1.414,11.597-4.103
		c2.97-2.687,4.949-6.223,5.516-10.605h-15.557v-11.313h28.143v36.204h-9.334l-1.414-8.484c-2.687,3.11-5.091,5.374-7.354,6.788
		c-3.677,2.263-8.344,3.394-13.718,3.394c-8.91,0-16.265-3.111-21.921-9.334c-5.939-6.223-8.909-14.707-8.909-25.456
		c0-10.891,2.97-19.657,9.051-26.305c6.081-6.646,14.001-9.899,23.9-9.899c8.627,0,15.415,2.122,20.646,6.506
		c5.232,4.384,8.202,9.758,8.91,16.264L304.484,296.366L304.484,296.366z M332.061,275.295h14.283v41.438
		c0,4.667,0.566,8.062,1.697,10.184c1.696,3.817,5.374,5.656,11.173,5.656c5.656,0,9.334-1.839,11.03-5.656
		c1.132-2.121,1.696-5.517,1.696-10.184v-41.438h14.284v41.438c0,7.213-1.132,12.729-3.395,16.829
		c-4.103,7.354-12.021,11.031-23.76,11.031c-11.597,0-19.517-3.677-23.759-11.031c-2.263-3.96-3.395-9.616-3.395-16.829
		L332.061,275.295L332.061,275.295z M419.034,275.295h15.98l23.899,67.459h-15.272l-4.384-13.859h-24.892l-4.524,13.859h-14.708
		L419.034,275.295z M418.187,317.298h17.254l-8.485-26.588L418.187,317.298z M510.677,277.133c2.546,1.133,4.525,2.688,6.364,4.81
		c1.413,1.697,2.546,3.536,3.395,5.657s1.271,4.384,1.271,7.07c0,3.252-0.849,6.363-2.403,9.476
		c-1.556,3.112-4.242,5.374-8.062,6.506c3.111,1.272,5.374,2.97,6.646,5.374c1.271,2.263,1.979,5.798,1.979,10.606v4.524
		c0,3.111,0.143,5.092,0.426,6.224c0.424,1.696,1.271,2.971,2.546,3.817v1.697h-15.558c-0.425-1.556-0.707-2.688-0.989-3.535
		c-0.425-1.839-0.565-3.818-0.565-5.799l-0.142-6.223c0-4.385-0.85-7.213-2.264-8.626c-1.414-1.415-4.102-2.122-8.062-2.122h-13.718
		v26.445h-13.859v-67.459h32.244C504.596,275.436,508.131,276.002,510.677,277.133L510.677,277.133z M481.544,287.033v18.102h15.132
		c2.971,0,5.232-0.424,6.789-1.131c2.687-1.272,3.959-3.817,3.959-7.638c0-4.101-1.272-6.788-3.818-8.202
		c-1.414-0.849-3.677-1.131-6.505-1.131H481.544L481.544,287.033z M554.377,275.295h15.979l23.9,67.459h-15.273l-4.384-13.859
		h-24.89l-4.525,13.859h-14.85L554.377,275.295z M553.529,317.298h17.254l-8.484-26.588L553.529,317.298z M602.602,275.295h14.85
		l26.729,47.095v-47.095h13.151v67.459h-14.142l-27.437-47.802v47.802h-13.152V275.295L602.602,275.295z M719.559,275.295v11.879
		h-20.224v55.58h-14.144v-55.58H664.97v-11.879H719.559L719.559,275.295z M777.684,287.315h-35.78v14.284h32.812v11.738h-32.812
		v17.395h37.336v12.162h-51.194v-67.458h49.498L777.684,287.315L777.684,287.315z M840.193,287.315h-35.78v14.284h32.812v11.738
		h-32.812v17.395h37.336v12.162h-51.194v-67.458h49.498L840.193,287.315L840.193,287.315z"/>
</g>
</svg>
