<?xml version="1.0" encoding="utf-8"?>
<!-- Generator: Adobe Illustrator 15.1.0, SVG Export Plug-In . SVG Version: 6.00 Build 0)  -->
<!DOCTYPE svg PUBLIC "-//W3C//DTD SVG 1.1//EN" "http://www.w3.org/Graphics/SVG/1.1/DTD/svg11.dtd">
<svg version="1.1" id="Layer_1" xmlns="http://www.w3.org/2000/svg" xmlns:xlink="http://www.w3.org/1999/xlink" x="0px" y="0px"
	 width="597px" height="595.281px" viewBox="122.445 0 597 595.281" enable-background="new 122.445 0 597 595.281"
	 xml:space="preserve">
<circle fill="#3AB0B6" cx="422.077" cy="299.028" r="290.531"/>
<g>
	<path fill="#C1E4EB" d="M355.597,98.771c-5.043-0.379-8.827-2.207-11.353-5.486c-2.525-3.28-3.583-7.614-3.178-13.009l2.268-30.174
		l13.218,0.993l-1.948,25.938c-0.234,3.124,0.288,5.532,1.554,7.228c1.271,1.694,3.187,2.636,5.737,2.828
		c2.551,0.193,4.625-0.45,6.222-1.935c1.598-1.479,2.515-3.78,2.749-6.9l1.949-25.941l13.217,0.994l-3.499,46.612l-13.218-0.992
		l0.501-6.666c-0.831,0.939-1.729,1.819-2.691,2.661c-0.968,0.839-2.028,1.565-3.183,2.185c-1.155,0.614-2.411,1.081-3.779,1.388
		C358.797,98.805,357.277,98.896,355.597,98.771z"/>
	<path fill="#C1E4EB" d="M395.685,54.03l13.214,0.993l-0.504,6.7c1.793-2.082,3.886-3.746,6.282-4.993
		c2.393-1.248,5.335-1.744,8.812-1.482c2.724,0.204,5.323,0.925,7.796,2.157c2.473,1.235,4.618,2.957,6.436,5.16
		c1.814,2.207,3.203,4.846,4.167,7.925c0.967,3.074,1.304,6.556,1.012,10.438l-0.011,0.175c-0.292,3.883-1.143,7.271-2.561,10.173
		c-1.414,2.896-3.157,5.301-5.259,7.212c-2.097,1.91-4.463,3.295-7.091,4.144c-2.631,0.857-5.335,1.181-8.117,0.968
		c-3.538-0.263-6.399-1.184-8.581-2.741c-2.188-1.565-3.996-3.333-5.422-5.305l-1.501,20.001l-13.214-0.993L395.685,54.03z
		 M417.313,92.125c1.565,0.117,3.052-0.08,4.455-0.584c1.41-0.509,2.681-1.285,3.811-2.336c1.131-1.05,2.052-2.34,2.778-3.858
		c0.725-1.518,1.161-3.266,1.309-5.236l0.013-0.175c0.144-1.915-0.027-3.693-0.517-5.327c-0.492-1.643-1.214-3.067-2.173-4.277
		c-0.959-1.205-2.101-2.164-3.416-2.877c-1.312-0.713-2.753-1.127-4.318-1.244c-1.565-0.116-3.057,0.076-4.459,0.58
		c-1.41,0.508-2.661,1.289-3.762,2.344c-1.1,1.055-2.018,2.354-2.736,3.901c-0.732,1.547-1.172,3.279-1.316,5.194l-0.011,0.175
		c-0.146,1.914,0.03,3.688,0.522,5.327c0.481,1.642,1.194,3.066,2.127,4.269c0.93,1.206,2.056,2.165,3.37,2.878
		C414.302,91.59,415.741,92.007,417.313,92.125z"/>
	<path fill="#C1E4EB" d="M464.385,106.854c-2.024-0.151-3.856-0.513-5.468-1.065c-1.623-0.557-2.987-1.437-4.092-2.623
		c-1.106-1.189-1.927-2.695-2.461-4.513c-0.538-1.815-0.696-4.087-0.493-6.816l1.661-22.087l-5.565-0.417l0.85-11.303l5.566,0.417
		l0.895-11.917l13.218,0.994L467.6,59.441l10.958,0.822l-0.851,11.303l-10.956-0.822l-1.503,19.985
		c-0.228,3.024,1.081,4.645,3.917,4.854c2.32,0.179,4.538-0.234,6.654-1.248l-0.797,10.609c-1.448,0.713-3.037,1.243-4.758,1.611
		C468.552,106.916,466.592,107.017,464.385,106.854z"/>
	<path fill="#C1E4EB" d="M505.416,110.195c-3.594-0.271-6.886-1.146-9.86-2.62c-2.98-1.479-5.506-3.39-7.572-5.732
		c-2.065-2.336-3.632-5.021-4.687-8.046c-1.055-3.021-1.456-6.219-1.205-9.577l0.011-0.175c0.25-3.362,1.13-6.457,2.624-9.29
		c1.498-2.832,3.458-5.266,5.885-7.299c2.423-2.032,5.221-3.566,8.392-4.614c3.165-1.046,6.577-1.433,10.229-1.159
		c3.591,0.27,6.882,1.146,9.858,2.62c2.979,1.479,5.505,3.386,7.57,5.729c2.074,2.343,3.633,5.023,4.688,8.046
		c1.055,3.025,1.456,6.218,1.206,9.577l-0.013,0.175c-0.25,3.363-1.13,6.461-2.623,9.293s-3.45,5.268-5.881,7.299
		c-2.427,2.032-5.226,3.571-8.392,4.618C512.478,110.082,509.069,110.471,505.416,110.195z M506.446,98.816
		c1.914,0.145,3.632-0.064,5.164-0.617c1.523-0.554,2.854-1.373,3.984-2.454c1.134-1.084,2.027-2.369,2.695-3.867
		c0.667-1.497,1.065-3.107,1.198-4.853l0.011-0.171c0.134-1.74-0.037-3.397-0.5-4.979c-0.467-1.581-1.201-3.007-2.219-4.276
		c-1.012-1.271-2.248-2.31-3.7-3.116c-1.452-0.812-3.079-1.281-4.876-1.418c-1.91-0.146-3.632,0.063-5.164,0.618
		c-1.527,0.554-2.858,1.372-3.988,2.453c-1.126,1.084-2.028,2.368-2.691,3.866c-0.672,1.498-1.064,3.113-1.198,4.851l-0.012,0.174
		c-0.133,1.741,0.034,3.396,0.505,4.979c0.458,1.577,1.197,3.003,2.214,4.273c1.014,1.273,2.229,2.312,3.655,3.116
		C502.948,98.202,504.587,98.677,506.446,98.816z"/>
	<path fill="#FFFFFF" d="M283.102,261.897c-10.071-0.759-18.716-3.064-25.928-6.916c-7.219-3.854-13.63-8.893-19.238-15.106
		l18.003-18.438c4.421,4.622,8.91,8.297,13.476,11.019c4.558,2.728,9.62,4.296,15.192,4.713c6.396,0.481,11.572-0.625,15.526-3.32
		c3.955-2.695,6.146-6.845,6.562-12.44l0.026-0.355c0.402-5.361-1.327-9.685-5.194-12.968c-3.862-3.282-9.055-5.168-15.567-5.656
		c-3.909-0.297-7.647-0.13-11.208,0.496c-3.562,0.63-6.87,1.482-9.931,2.562l-15.025-11.674l8.155-61.041l76.553,5.748
		l-1.801,23.988l-53.099-3.983l-3.049,21.559c2.533-0.401,5.059-0.713,7.58-0.939c2.521-0.229,5.493-0.208,8.933,0.053
		c6.04,0.451,11.647,1.649,16.823,3.58c5.172,1.934,9.639,4.647,13.393,8.137c3.754,3.492,6.578,7.833,8.467,13.027
		c1.885,5.198,2.57,11.28,2.048,18.253l-0.026,0.355c-0.497,6.62-2.082,12.479-4.739,17.566c-2.661,5.092-6.191,9.347-10.587,12.759
		c-4.395,3.416-9.606,5.911-15.641,7.478C296.778,261.912,290.207,262.431,283.102,261.897z"/>
	<path fill="#FFFFFF" d="M401.096,270.758c-8.296-0.625-15.724-2.819-22.295-6.59c-6.57-3.769-12.03-8.705-16.398-14.81
		c-4.367-6.105-7.561-13.168-9.576-21.185c-2.019-8.012-2.688-16.521-2.015-25.524l0.026-0.356
		c0.675-9.001,2.643-17.315,5.896-24.934c3.253-7.621,7.522-14.146,12.815-19.587c5.293-5.441,11.466-9.562,18.533-12.372
		c7.056-2.802,14.736-3.895,23.028-3.272c8.171,0.614,15.542,2.807,22.113,6.575c6.562,3.77,12.03,8.705,16.401,14.811
		c4.364,6.107,7.588,13.172,9.669,21.19c2.077,8.017,2.778,16.527,2.104,25.528l-0.026,0.355
		c-0.675,9.007-2.639,17.312-5.892,24.938c-3.254,7.617-7.526,14.146-12.82,19.588c-5.293,5.44-11.469,9.562-18.528,12.368
		C417.066,270.288,409.388,271.38,401.096,270.758z M403.306,246.082c4.147,0.312,7.951-0.391,11.413-2.093
		c3.465-1.706,6.51-4.216,9.146-7.534c2.631-3.312,4.743-7.329,6.354-12.03c1.604-4.704,2.616-9.899,3.045-15.587l0.025-0.355
		c0.43-5.688,0.175-10.979-0.77-15.876c-0.948-4.896-2.499-9.214-4.66-12.948s-4.856-6.733-8.08-9.005
		c-3.227-2.269-6.852-3.557-10.878-3.856c-4.151-0.313-7.959,0.388-11.417,2.095c-3.465,1.701-6.482,4.22-9.058,7.537
		c-2.57,3.32-4.69,7.333-6.351,12.03c-1.669,4.701-2.716,9.896-3.141,15.579l-0.025,0.356c-0.426,5.688-0.172,11.007,0.772,15.963
		c0.938,4.959,2.457,9.271,4.568,12.943c2.104,3.675,4.771,6.644,7.997,8.91C395.473,244.482,399.155,245.771,403.306,246.082z"/>
	<path fill="#FFFFFF" d="M504.549,213.831c-4.504-0.338-8.527-1.475-12.072-3.405c-3.549-1.938-6.548-4.425-9.001-7.469
		c-2.449-3.045-4.247-6.515-5.385-10.412c-1.138-3.894-1.539-8.033-1.209-12.417l0.025-0.355c0.33-4.384,1.377-8.448,3.147-12.188
		c1.771-3.733,4.099-6.958,6.979-9.665c2.886-2.698,6.252-4.738,10.111-6.119c3.853-1.377,8.035-1.896,12.539-1.559
		c4.501,0.341,8.522,1.475,12.068,3.405c3.553,1.938,6.549,4.425,9.002,7.469c2.448,3.045,4.25,6.515,5.384,10.412
		c1.138,3.901,1.543,8.038,1.213,12.421l-0.026,0.356c-0.325,4.383-1.38,8.447-3.144,12.183c-1.773,3.738-4.103,6.961-6.983,9.665
		c-2.886,2.703-6.253,4.743-10.107,6.119C513.236,213.649,509.05,214.169,504.549,213.831z M582.432,157.132l21.146,1.589
		L503.431,276.298l-21.146-1.589L582.432,157.132z M506.121,197.69c3.788,0.284,6.749-1.039,8.877-3.981
		c2.128-2.935,3.341-6.419,3.645-10.448l0.026-0.356c0.313-4.146-0.481-7.868-2.378-11.167c-1.896-3.298-4.621-5.084-8.179-5.35
		c-3.792-0.284-6.749,1.017-8.872,3.891c-2.12,2.881-3.337,6.393-3.646,10.536l-0.027,0.355c-0.311,4.148,0.481,7.872,2.378,11.167
		C499.844,195.642,502.563,197.421,506.121,197.69z M576.184,283.186c-4.504-0.337-8.527-1.476-12.072-3.404
		c-3.549-1.934-6.552-4.425-9.002-7.47c-2.453-3.041-4.25-6.51-5.384-10.412c-1.138-3.895-1.535-8.034-1.205-12.417l0.026-0.356
		c0.33-4.383,1.376-8.446,3.146-12.187c1.771-3.734,4.099-6.957,6.98-9.661c2.882-2.703,6.253-4.743,10.111-6.119
		c3.856-1.376,8.034-1.898,12.539-1.562c4.5,0.338,8.527,1.479,12.072,3.408c3.545,1.938,6.548,4.422,9.001,7.467
		c2.449,3.048,4.247,6.514,5.385,10.411c1.138,3.9,1.539,8.037,1.209,12.422l-0.025,0.355c-0.33,4.383-1.381,8.447-3.151,12.183
		c-1.771,3.738-4.099,6.962-6.979,9.665c-2.882,2.702-6.248,4.742-10.111,6.119C584.865,283.009,580.685,283.528,576.184,283.186z
		 M577.757,267.046c3.788,0.284,6.745-1.034,8.872-3.978c2.128-2.942,3.341-6.419,3.645-10.449l0.026-0.355
		c0.311-4.148-0.481-7.871-2.378-11.171c-1.896-3.299-4.621-5.085-8.179-5.351c-3.792-0.284-6.749,1.017-8.868,3.891
		c-2.119,2.883-3.341,6.394-3.65,10.537l-0.027,0.356c-0.311,4.146,0.485,7.871,2.381,11.17
		C571.475,264.999,574.199,266.776,577.757,267.046z"/>
	<path fill="#FFFFFF" d="M167.306,274.667l13.218,0.993l-4.766,63.483l-13.218-0.993L167.306,274.667z"/>
	<path fill="#FFFFFF" d="M208.813,342.675c-3.595-0.271-6.882-1.146-9.861-2.616c-2.979-1.479-5.506-3.39-7.571-5.729
		c-2.066-2.344-3.629-5.022-4.688-8.05c-1.054-3.021-1.456-6.214-1.201-9.577l0.012-0.175c0.254-3.363,1.126-6.457,2.62-9.289
		c1.497-2.833,3.458-5.263,5.884-7.299c2.423-2.032,5.222-3.572,8.396-4.618c3.162-1.043,6.578-1.43,10.229-1.157
		c3.591,0.271,6.882,1.146,9.856,2.62c2.98,1.479,5.507,3.386,7.572,5.729c2.074,2.339,3.633,5.023,4.688,8.046
		c1.054,3.024,1.46,6.218,1.206,9.577l-0.013,0.175c-0.25,3.363-1.13,6.461-2.62,9.293c-1.493,2.833-3.453,5.267-5.881,7.299
		c-2.427,2.032-5.225,3.572-8.387,4.614C215.872,342.563,212.464,342.946,208.813,342.675z M209.84,331.3
		c1.915,0.144,3.633-0.068,5.164-0.618c1.528-0.559,2.854-1.373,3.984-2.457c1.135-1.081,2.028-2.37,2.699-3.863
		c0.664-1.498,1.062-3.113,1.194-4.854l0.012-0.176c0.133-1.735-0.038-3.396-0.501-4.975c-0.466-1.577-1.201-3.007-2.218-4.276
		c-1.013-1.271-2.244-2.31-3.7-3.12c-1.452-0.809-3.079-1.277-4.876-1.415c-1.911-0.145-3.633,0.064-5.161,0.618
		c-1.526,0.555-2.857,1.376-3.992,2.453c-1.126,1.081-2.027,2.37-2.691,3.867c-0.671,1.498-1.065,3.109-1.197,4.851l-0.012,0.175
		c-0.129,1.739,0.034,3.396,0.504,4.979c0.459,1.581,1.198,3.003,2.215,4.272c1.012,1.273,2.229,2.31,3.655,3.117
		C206.344,330.684,207.987,331.158,209.84,331.3z"/>
	<path fill="#FFFFFF" d="M241.257,297.189l13.393,1.005l5.357,28.827l10.916-27.777l11.394,0.857l6.728,29.191l9.786-27.777
		l13.13,0.984l-18.048,45.871l-11.917-0.891l-6.811-29.286l-11.279,27.925l-11.826-0.888L241.257,297.189z"/>
	<path fill="#FFFFFF" d="M336.297,352.247c-3.478-0.262-6.669-1.084-9.562-2.465c-2.899-1.384-5.356-3.232-7.365-5.539
		c-2.019-2.306-3.522-4.971-4.521-7.988c-0.998-3.019-1.361-6.324-1.093-9.923l0.012-0.175c0.246-3.303,1.047-6.393,2.4-9.259
		c1.354-2.874,3.124-5.331,5.318-7.387c2.191-2.047,4.747-3.605,7.655-4.667c2.904-1.065,6.07-1.473,9.486-1.215
		c3.883,0.292,7.196,1.24,9.935,2.849c2.733,1.604,4.959,3.651,6.665,6.139c1.71,2.491,2.9,5.293,3.564,8.402
		c0.671,3.109,0.883,6.32,0.637,9.623c-0.038,0.523-0.099,1.073-0.167,1.648c-0.075,0.58-0.163,1.184-0.269,1.816l-32.435-2.438
		c0.405,3.066,1.555,5.44,3.442,7.125c1.885,1.687,4.304,2.643,7.261,2.865c2.199,0.163,4.201-0.067,5.999-0.689
		c1.793-0.625,3.686-1.706,5.668-3.245l7.062,7.265c-2.41,2.561-5.231,4.489-8.48,5.79
		C344.268,352.072,340.529,352.561,336.297,352.247z M346.925,324.89c-0.187-2.987-1.05-5.456-2.593-7.412
		c-1.548-1.953-3.709-3.033-6.491-3.238c-2.779-0.212-5.097,0.523-6.942,2.188c-1.843,1.669-3.14,3.993-3.891,6.969L346.925,324.89z
		"/>
	<path fill="#FFFFFF" d="M368.92,306.774l13.214,0.993l-0.705,9.393c1.573-3.083,3.595-5.502,6.055-7.241
		c2.461-1.736,5.661-2.37,9.589-1.903l-1.037,13.828l-0.702-0.055c-4.401-0.333-7.971,0.743-10.688,3.221
		c-2.722,2.476-4.296,6.531-4.717,12.15l-1.293,17.219l-13.213-0.993L368.92,306.774z"/>
	<path fill="#FFFFFF" d="M427.007,311.138l13.214,0.993l-0.504,6.695c1.793-2.082,3.883-3.741,6.281-4.992
		c2.394-1.248,5.336-1.741,8.812-1.483c2.723,0.205,5.323,0.926,7.796,2.162c2.472,1.23,4.614,2.953,6.435,5.16
		c1.815,2.206,3.203,4.846,4.168,7.92c0.963,3.079,1.304,6.556,1.012,10.441l-0.011,0.171c-0.292,3.884-1.146,7.275-2.561,10.174
		c-1.414,2.899-3.162,5.301-5.259,7.212c-2.102,1.914-4.463,3.294-7.091,4.146c-2.631,0.854-5.335,1.176-8.117,0.967
		c-3.538-0.266-6.4-1.183-8.581-2.744c-2.191-1.562-3.996-3.333-5.422-5.306l-1.501,20.001l-13.218-0.997L427.007,311.138z
		 M448.635,349.229c1.562,0.113,3.048-0.08,4.455-0.584c1.41-0.509,2.677-1.289,3.807-2.34c1.134-1.05,2.055-2.336,2.783-3.859
		c0.724-1.517,1.16-3.265,1.308-5.235l0.013-0.172c0.144-1.915-0.026-3.692-0.517-5.33c-0.493-1.643-1.214-3.067-2.177-4.273
		c-0.959-1.205-2.097-2.168-3.412-2.881c-1.316-0.713-2.757-1.126-4.319-1.244c-1.564-0.113-3.056,0.08-4.458,0.584
		c-1.406,0.508-2.662,1.289-3.762,2.34c-1.104,1.054-2.018,2.358-2.741,3.905c-0.729,1.547-1.168,3.279-1.312,5.189l-0.012,0.176
		c-0.146,1.914,0.029,3.691,0.52,5.326c0.485,1.646,1.194,3.067,2.131,4.272c0.929,1.202,2.055,2.161,3.37,2.874
		C445.623,348.698,447.069,349.111,448.635,349.229z"/>
	<path fill="#FFFFFF" d="M483.529,315.383l13.214,0.992l-0.705,9.393c1.573-3.083,3.595-5.498,6.056-7.238s5.661-2.373,9.589-1.902
		l-1.038,13.823l-0.702-0.053c-4.4-0.33-7.97,0.743-10.688,3.223c-2.719,2.48-4.297,6.529-4.718,12.148l-1.293,17.218l-13.214-0.994
		L483.529,315.383z"/>
	<path fill="#FFFFFF" d="M518.317,317.99l13.218,0.997l-3.5,46.61l-13.218-0.994L518.317,317.99z M519.234,301.094l13.915,1.046
		l-0.879,11.739l-13.915-1.043L519.234,301.094z"/>
	<path fill="#FFFFFF" d="M560.213,369.062c-3.478-0.262-6.661-1.145-9.556-2.639c-2.889-1.501-5.327-3.416-7.306-5.756
		c-1.979-2.331-3.474-5.01-4.471-8.03c-0.997-3.02-1.376-6.182-1.126-9.486l0.012-0.175c0.246-3.303,1.096-6.389,2.532-9.251
		c1.438-2.863,3.316-5.316,5.623-7.359c2.31-2.04,5.005-3.587,8.088-4.642c3.082-1.05,6.423-1.444,10.013-1.175
		c4.406,0.333,8.009,1.304,10.807,2.911c2.791,1.611,5.198,3.716,7.22,6.316l-8.739,8.087c-1.388-1.676-2.848-3.04-4.372-4.087
		c-1.523-1.043-3.477-1.661-5.85-1.835c-1.685-0.129-3.23,0.091-4.646,0.656c-1.414,0.561-2.669,1.388-3.769,2.468
		c-1.104,1.085-1.983,2.374-2.65,3.871c-0.671,1.498-1.062,3.109-1.194,4.85l-0.011,0.176c-0.137,1.801,0.007,3.499,0.447,5.106
		c0.432,1.607,1.126,3.029,2.081,4.266c0.956,1.239,2.131,2.244,3.534,3.021c1.397,0.773,2.999,1.232,4.796,1.365
		c2.203,0.166,4.163-0.142,5.881-0.914c1.722-0.773,3.45-1.852,5.184-3.238l7.154,8.406c-2.449,2.328-5.183,4.178-8.205,5.555
		C568.684,368.896,564.855,369.412,560.213,369.062z"/>
	<path fill="#FFFFFF" d="M607.782,372.632c-3.478-0.259-6.67-1.081-9.565-2.466c-2.897-1.38-5.357-3.229-7.367-5.534
		c-2.014-2.307-3.52-4.976-4.516-7.989c-0.998-3.021-1.365-6.324-1.097-9.923l0.011-0.174c0.247-3.304,1.052-6.394,2.4-9.265
		c1.354-2.873,3.128-5.33,5.319-7.382c2.194-2.048,4.747-3.604,7.659-4.671c2.903-1.062,6.065-1.468,9.485-1.21
		c3.883,0.292,7.192,1.24,9.932,2.848c2.736,1.604,4.959,3.651,6.669,6.14c1.706,2.486,2.896,5.293,3.563,8.401
		c0.671,3.108,0.884,6.32,0.638,9.623c-0.038,0.523-0.1,1.069-0.167,1.649c-0.075,0.576-0.163,1.183-0.27,1.814l-32.438-2.438
		c0.408,3.062,1.559,5.439,3.441,7.124c1.89,1.688,4.309,2.644,7.267,2.863c2.197,0.167,4.199-0.064,5.994-0.69
		c1.797-0.622,3.688-1.702,5.668-3.242l7.063,7.266c-2.408,2.56-5.231,4.488-8.481,5.785
		C615.753,372.461,612.018,372.949,607.782,372.632z M618.406,345.27c-0.182-2.987-1.05-5.456-2.589-7.409
		c-1.547-1.952-3.708-3.033-6.491-3.241c-2.778-0.209-5.096,0.523-6.941,2.191c-1.847,1.668-3.145,3.992-3.892,6.965L618.406,345.27
		z"/>
	<path fill="#FFFFFF" d="M653.184,375.869c-3.303-0.247-6.64-1.064-9.999-2.453c-3.366-1.388-6.525-3.417-9.471-6.09l6.305-8.272
		c2.412,2.052,4.842,3.633,7.295,4.747c2.457,1.119,4.785,1.76,6.988,1.927c1.915,0.14,3.341-0.072,4.288-0.641
		c0.943-0.569,1.46-1.378,1.535-2.424l0.012-0.175c0.054-0.697-0.163-1.323-0.648-1.885c-0.478-0.557-1.16-1.062-2.027-1.505
		c-0.872-0.443-1.869-0.884-3.008-1.323c-1.137-0.433-2.323-0.897-3.562-1.403c-1.593-0.584-3.187-1.272-4.789-2.062
		c-1.604-0.792-3.029-1.774-4.284-2.946c-1.252-1.171-2.241-2.574-2.962-4.197c-0.729-1.634-1.001-3.574-0.834-5.839l0.016-0.171
		c0.179-2.377,0.784-4.446,1.819-6.206c1.035-1.756,2.37-3.22,4-4.376c1.631-1.155,3.5-1.979,5.608-2.461
		c2.104-0.484,4.345-0.641,6.722-0.458c2.958,0.225,5.923,0.921,8.896,2.111c2.974,1.184,5.674,2.715,8.096,4.588l-5.732,8.755
		c-2.218-1.505-4.402-2.737-6.541-3.688c-2.146-0.944-4.061-1.482-5.74-1.607c-1.627-0.121-2.865,0.087-3.716,0.637
		c-0.86,0.551-1.323,1.285-1.392,2.215l-0.012,0.175c-0.05,0.638,0.17,1.221,0.651,1.752c0.486,0.535,1.146,1.047,1.983,1.551
		c0.838,0.497,1.801,0.997,2.903,1.486c1.101,0.492,2.269,0.988,3.52,1.489c1.581,0.646,3.188,1.393,4.818,2.24
		c1.623,0.854,3.063,1.847,4.318,2.996c1.255,1.141,2.264,2.498,3.019,4.072c0.755,1.572,1.051,3.427,0.892,5.577l-0.013,0.175
		c-0.192,2.607-0.811,4.817-1.854,6.639c-1.035,1.816-2.419,3.27-4.129,4.364c-1.718,1.096-3.687,1.869-5.904,2.309
		C658.035,375.927,655.678,376.058,653.184,375.869z"/>
	<path fill="#C1E4EB" d="M219.57,422.828c-1.414-0.103-2.681-0.354-3.813-0.739c-1.126-0.391-2.074-0.997-2.844-1.823
		c-0.773-0.827-1.339-1.873-1.71-3.141c-0.371-1.263-0.481-2.844-0.342-4.738l1.152-15.367l-3.871-0.288l0.591-7.864l3.872,0.288
		l0.621-8.288l9.195,0.69l-0.622,8.292l7.621,0.567l-0.592,7.864l-7.621-0.568l-1.043,13.903c-0.159,2.104,0.751,3.23,2.727,3.378
		c1.615,0.121,3.154-0.167,4.63-0.868l-0.554,7.379c-1.009,0.492-2.112,0.868-3.314,1.122
		C222.458,422.873,221.098,422.945,219.57,422.828z"/>
	<path fill="#C1E4EB" d="M235.563,379.072l9.194,0.69l-1.229,16.372c0.576-0.652,1.202-1.268,1.873-1.848
		c0.676-0.584,1.414-1.092,2.214-1.521c0.802-0.428,1.678-0.75,2.629-0.967c0.947-0.216,2.01-0.276,3.182-0.189
		c3.507,0.262,6.138,1.536,7.894,3.814c1.752,2.286,2.491,5.297,2.211,9.051l-1.577,20.99l-9.198-0.69l1.354-18.044
		c0.163-2.173-0.195-3.849-1.084-5.027c-0.884-1.18-2.214-1.836-3.984-1.972c-1.778-0.133-3.22,0.314-4.333,1.342
		c-1.107,1.031-1.748,2.632-1.911,4.805l-1.354,18.045l-9.194-0.69L235.563,379.072z"/>
	<path fill="#C1E4EB" d="M277.57,427.249c-1.527-0.117-2.953-0.437-4.272-0.964c-1.319-0.525-2.453-1.247-3.397-2.168
		c-0.946-0.922-1.66-2.021-2.156-3.295c-0.489-1.273-0.676-2.719-0.555-4.334l0.008-0.117c0.134-1.777,0.569-3.283,1.312-4.522
		c0.746-1.244,1.721-2.245,2.931-3.007c1.213-0.76,2.631-1.293,4.258-1.598c1.631-0.303,3.401-0.383,5.343-0.234
		c1.656,0.122,3.087,0.353,4.3,0.687c1.21,0.338,2.385,0.751,3.526,1.24l0.042-0.546c0.146-1.938-0.326-3.45-1.423-4.547
		c-1.096-1.097-2.791-1.729-5.089-1.903c-1.773-0.133-3.348-0.099-4.724,0.099c-1.373,0.201-2.829,0.531-4.36,0.982l-1.773-7.188
		c1.831-0.635,3.737-1.119,5.71-1.456c1.972-0.343,4.326-0.406,7.066-0.201c2.54,0.188,4.688,0.667,6.436,1.426
		c1.748,0.762,3.162,1.767,4.246,3.025c1.119,1.301,1.893,2.852,2.328,4.647c0.433,1.797,0.564,3.784,0.401,5.96l-1.414,18.814
		l-8.892-0.667l0.262-3.513c-1.221,1.168-2.649,2.062-4.277,2.692C281.775,427.184,279.833,427.415,277.57,427.249z M280.83,421.102
		c2.18,0.167,3.958-0.231,5.35-1.18c1.388-0.951,2.15-2.274,2.279-3.967l0.121-1.638c-0.785-0.417-1.661-0.781-2.624-1.077
		c-0.976-0.295-2.028-0.484-3.154-0.567c-1.976-0.147-3.557,0.116-4.743,0.796c-1.187,0.687-1.835,1.752-1.945,3.204l-0.008,0.121
		c-0.091,1.248,0.3,2.256,1.176,3.007C278.154,420.56,279.34,420.988,280.83,421.102z"/>
	<path fill="#C1E4EB" d="M305.154,396.1l9.194,0.694l-0.349,4.637c0.576-0.652,1.206-1.271,1.873-1.852
		c0.679-0.58,1.414-1.092,2.214-1.521c0.804-0.428,1.676-0.75,2.632-0.967c0.947-0.216,2.006-0.276,3.177-0.189
		c3.508,0.262,6.14,1.536,7.896,3.818c1.752,2.282,2.495,5.297,2.211,9.047l-1.578,20.994l-9.198-0.694l1.354-18.044
		c0.162-2.169-0.201-3.849-1.084-5.027c-0.885-1.18-2.216-1.832-3.989-1.968c-1.778-0.133-3.219,0.314-4.333,1.342
		c-1.107,1.031-1.748,2.633-1.911,4.809l-1.354,18.045l-9.194-0.694L305.154,396.1z"/>
	<path fill="#C1E4EB" d="M371.389,434.411c-2.499-0.188-4.785-0.796-6.859-1.819c-2.069-1.027-3.828-2.358-5.263-3.988
		c-1.439-1.631-2.529-3.492-3.261-5.597c-0.735-2.104-1.016-4.326-0.842-6.666l0.008-0.121c0.175-2.339,0.785-4.493,1.823-6.461
		c1.043-1.973,2.403-3.662,4.096-5.077c1.687-1.418,3.632-2.487,5.835-3.215c2.207-0.726,4.58-0.993,7.12-0.805
		c2.499,0.189,4.785,0.797,6.858,1.82c2.07,1.027,3.829,2.354,5.268,3.984c1.437,1.635,2.524,3.496,3.257,5.601
		c0.735,2.104,1.017,4.33,0.842,6.665l-0.008,0.122c-0.174,2.335-0.784,4.492-1.823,6.461c-1.043,1.976-2.403,3.662-4.092,5.076
		c-1.687,1.418-3.64,2.487-5.839,3.216C376.303,434.336,373.929,434.6,371.389,434.411z M372.106,426.494
		c1.33,0.1,2.528-0.042,3.587-0.429c1.068-0.387,1.99-0.955,2.775-1.706c0.788-0.751,1.414-1.648,1.88-2.688
		c0.463-1.038,0.739-2.165,0.831-3.378l0.007-0.117c0.092-1.21-0.025-2.366-0.349-3.466c-0.322-1.097-0.834-2.094-1.543-2.978
		c-0.701-0.88-1.56-1.604-2.574-2.169c-1.013-0.561-2.143-0.887-3.394-0.985c-1.331-0.099-2.529,0.046-3.588,0.433
		c-1.064,0.391-1.989,0.956-2.774,1.707c-0.789,0.75-1.414,1.647-1.877,2.688c-0.467,1.039-0.739,2.165-0.83,3.375l-0.008,0.121
		c-0.092,1.21,0.021,2.366,0.349,3.466c0.322,1.097,0.834,2.094,1.543,2.974c0.702,0.883,1.547,1.606,2.544,2.165
		C369.675,426.069,370.813,426.399,372.106,426.494z"/>
	<path fill="#C1E4EB" d="M405.096,436.759c-1.411-0.106-2.677-0.354-3.812-0.739c-1.126-0.391-2.073-1.001-2.844-1.823
		c-0.772-0.831-1.339-1.877-1.71-3.14c-0.376-1.268-0.48-2.849-0.342-4.743l1.153-15.364l-3.871-0.292l0.591-7.862l3.871,0.291
		l0.622-8.291l9.193,0.692l-0.621,8.289l7.621,0.572l-0.592,7.862l-7.621-0.571l-1.043,13.902c-0.159,2.104,0.751,3.234,2.728,3.384
		c1.614,0.121,3.153-0.171,4.63-0.868l-0.555,7.378c-1.009,0.493-2.111,0.868-3.313,1.118
		C407.989,436.807,406.631,436.877,405.096,436.759z"/>
	<path fill="#C1E4EB" d="M421.1,393.004l9.195,0.689l-1.229,16.372c0.572-0.652,1.201-1.267,1.873-1.851
		c0.675-0.58,1.414-1.088,2.214-1.518c0.8-0.429,1.676-0.755,2.628-0.967c0.947-0.216,2.009-0.276,3.182-0.189
		c3.508,0.263,6.139,1.531,7.891,3.814c1.755,2.282,2.495,5.297,2.21,9.05l-1.577,20.99l-9.198-0.693l1.354-18.044
		c0.163-2.169-0.197-3.845-1.084-5.023c-0.884-1.184-2.215-1.835-3.985-1.973c-1.777-0.133-3.219,0.315-4.334,1.344
		c-1.114,1.026-1.748,2.631-1.911,4.804l-1.354,18.044l-9.194-0.693L421.1,393.004z"/>
	<path fill="#C1E4EB" d="M469.269,441.762c-2.423-0.183-4.642-0.751-6.654-1.718c-2.021-0.964-3.728-2.244-5.127-3.853
		c-1.401-1.604-2.444-3.458-3.143-5.562c-0.694-2.102-0.948-4.398-0.759-6.897l0.008-0.121c0.171-2.298,0.729-4.447,1.672-6.44
		c0.939-1.998,2.169-3.713,3.701-5.135c1.526-1.43,3.302-2.514,5.322-3.25c2.021-0.738,4.221-1.022,6.602-0.846
		c2.704,0.205,5.005,0.865,6.908,1.977c1.903,1.118,3.45,2.545,4.638,4.272c1.187,1.732,2.017,3.682,2.479,5.847
		c0.468,2.161,0.614,4.396,0.439,6.696c-0.026,0.363-0.067,0.743-0.117,1.146c-0.053,0.401-0.113,0.826-0.186,1.267l-22.562-1.695
		c0.281,2.131,1.085,3.784,2.396,4.956c1.305,1.176,2.992,1.835,5.051,1.99c1.528,0.114,2.923-0.041,4.175-0.474
		c1.251-0.437,2.562-1.188,3.942-2.265l4.914,5.051c-1.677,1.785-3.645,3.124-5.903,4.03
		C474.812,441.641,472.211,441.979,469.269,441.762z M476.657,422.725c-0.129-2.078-0.729-3.796-1.805-5.153
		c-1.069-1.356-2.578-2.11-4.516-2.256c-1.936-0.144-3.546,0.364-4.827,1.521c-1.281,1.168-2.185,2.774-2.703,4.846L476.657,422.725
		z"/>
	<path fill="#C1E4EB" d="M491.961,410.127l9.193,0.692l-0.488,6.537c1.1-2.149,2.502-3.829,4.213-5.039
		c1.71-1.21,3.938-1.653,6.67-1.323l-0.722,9.615l-0.48-0.034c-3.067-0.233-5.548,0.517-7.439,2.237
		c-1.892,1.726-2.991,4.538-3.282,8.455l-0.898,11.974l-9.195-0.688L491.961,410.127z"/>
	<path fill="#C1E4EB" d="M548.513,447.647c-5.685-0.425-10.04-2.332-13.073-5.726c-3.033-3.395-4.314-8.213-3.845-14.461
		l1.814-24.198l9.316,0.702l-1.801,23.955c-0.263,3.466,0.353,6.139,1.831,8.012c1.479,1.877,3.65,2.923,6.514,3.136
		c2.867,0.216,5.168-0.463,6.908-2.036c1.741-1.57,2.737-4.054,2.992-7.438l1.818-24.26l9.316,0.702l-1.797,23.896
		c-0.243,3.229-0.881,5.998-1.932,8.313c-1.042,2.311-2.434,4.201-4.167,5.676c-1.735,1.473-3.775,2.516-6.135,3.13
		C553.92,447.662,551.337,447.863,548.513,447.647z"/>
	<path fill="#C1E4EB" d="M578.303,406.635l9.315,0.701l-1.392,18.511l18.571-17.223l11.257,0.847l-18.594,16.672l16.197,25.732
		l-11.192-0.842l-11.776-19.015l-5.282,4.713l-0.971,12.944l-9.315-0.701L578.303,406.635z"/>
	<path fill="#C1E4EB" d="M234.717,488.786c-2.499-0.188-4.785-0.796-6.859-1.819c-2.073-1.027-3.829-2.354-5.267-3.984
		c-1.44-1.631-2.528-3.496-3.257-5.601c-0.739-2.104-1.017-4.326-0.842-6.665l0.008-0.122c0.175-2.335,0.78-4.492,1.824-6.461
		c1.037-1.972,2.398-3.662,4.091-5.076c1.689-1.414,3.632-2.487,5.839-3.212c2.203-0.729,4.576-0.997,7.117-0.809
		c2.498,0.189,4.788,0.797,6.857,1.82c2.07,1.027,3.83,2.358,5.268,3.984c1.44,1.635,2.528,3.496,3.257,5.601
		c0.735,2.104,1.017,4.33,0.842,6.666l-0.007,0.121c-0.175,2.339-0.785,4.493-1.824,6.461c-1.039,1.976-2.4,3.666-4.091,5.08
		c-1.691,1.415-3.642,2.484-5.84,3.212C239.631,488.712,237.257,488.975,234.717,488.786z M235.434,480.873
		c1.33,0.1,2.528-0.045,3.59-0.429c1.065-0.39,1.987-0.959,2.776-1.71c0.788-0.75,1.414-1.648,1.873-2.688
		c0.462-1.039,0.739-2.165,0.83-3.379l0.008-0.117c0.091-1.21-0.027-2.362-0.35-3.462c-0.318-1.101-0.834-2.094-1.539-2.978
		c-0.705-0.88-1.562-1.606-2.574-2.169c-1.013-0.561-2.146-0.891-3.397-0.985c-1.331-0.099-2.528,0.047-3.587,0.43
		c-1.064,0.391-1.99,0.959-2.774,1.706c-0.789,0.754-1.414,1.648-1.877,2.69c-0.463,1.035-0.735,2.161-0.826,3.371l-0.008,0.121
		c-0.092,1.21,0.021,2.366,0.345,3.466c0.322,1.097,0.838,2.094,1.543,2.974c0.702,0.884,1.551,1.606,2.545,2.169
		C232.999,480.448,234.141,480.778,235.434,480.873z"/>
	<path fill="#C1E4EB" d="M259.949,457.344l9.194,0.692l-0.349,4.639c0.576-0.652,1.201-1.271,1.873-1.852
		c0.675-0.58,1.414-1.088,2.214-1.521c0.804-0.43,1.676-0.747,2.628-0.963c0.951-0.217,2.009-0.277,3.181-0.193
		c3.508,0.262,6.14,1.535,7.896,3.818c1.751,2.285,2.491,5.297,2.21,9.05l-1.577,20.99l-9.198-0.689l1.354-18.048
		c0.163-2.169-0.197-3.85-1.081-5.028c-0.888-1.179-2.218-1.831-3.988-1.968c-1.778-0.133-3.219,0.315-4.334,1.343
		c-1.107,1.031-1.748,2.631-1.911,4.809l-1.354,18.044l-9.194-0.69L259.949,457.344z"/>
	<path fill="#C1E4EB" d="M297.434,448.356l9.194,0.69l-3.317,44.159l-9.193-0.688L297.434,448.356z"/>
	<path fill="#C1E4EB" d="M313.305,461.35l9.195,0.693l-2.436,32.426l-9.193-0.69L313.305,461.35z M313.946,449.596l9.682,0.724
		l-0.614,8.167l-9.68-0.728L313.946,449.596z"/>
	<path fill="#C1E4EB" d="M329.643,462.579l9.195,0.689l-0.351,4.638c0.577-0.651,1.202-1.267,1.873-1.851
		c0.677-0.58,1.415-1.088,2.216-1.518c0.804-0.429,1.676-0.751,2.628-0.967c0.95-0.216,2.009-0.276,3.181-0.188
		c3.507,0.262,6.139,1.53,7.895,3.813c1.751,2.286,2.49,5.297,2.21,9.05l-1.576,20.994l-9.198-0.692l1.354-18.049
		c0.163-2.169-0.196-3.845-1.081-5.023c-0.887-1.184-2.218-1.835-3.987-1.972c-1.778-0.134-3.22,0.313-4.334,1.343
		c-1.107,1.031-1.748,2.631-1.911,4.804l-1.354,18.048l-9.193-0.692L329.643,462.579z"/>
	<path fill="#C1E4EB" d="M378.696,499.599c-2.423-0.182-4.646-0.75-6.657-1.718c-2.019-0.959-3.725-2.244-5.127-3.853
		c-1.402-1.604-2.449-3.458-3.144-5.559c-0.693-2.102-0.948-4.402-0.759-6.901l0.008-0.121c0.171-2.294,0.729-4.446,1.672-6.44
		c0.94-1.998,2.169-3.712,3.701-5.135c1.527-1.426,3.302-2.514,5.327-3.25c2.017-0.738,4.216-1.022,6.601-0.845
		c2.704,0.204,5.001,0.864,6.904,1.979c1.904,1.114,3.451,2.541,4.638,4.272c1.188,1.729,2.018,3.679,2.479,5.843
		c0.467,2.161,0.618,4.396,0.442,6.696c-0.025,0.363-0.067,0.743-0.116,1.148c-0.054,0.397-0.113,0.823-0.189,1.263l-22.562-1.695
		c0.283,2.132,1.088,3.784,2.398,4.956c1.31,1.177,2.992,1.839,5.051,1.994c1.531,0.114,2.924-0.045,4.179-0.478
		c1.248-0.434,2.56-1.188,3.938-2.265l4.914,5.056c-1.676,1.78-3.644,3.124-5.903,4.025
		C384.242,499.474,381.641,499.819,378.696,499.599z M386.085,480.566c-0.125-2.082-0.729-3.796-1.806-5.153
		c-1.068-1.356-2.578-2.11-4.513-2.26c-1.938-0.144-3.549,0.364-4.83,1.524c-1.28,1.16-2.181,2.774-2.703,4.846L386.085,480.566z"/>
	<path fill="#C1E4EB" d="M430.837,503.512c-2.419-0.183-4.635-0.792-6.646-1.835c-2.01-1.039-3.709-2.374-5.085-4
		c-1.373-1.627-2.411-3.488-3.104-5.589c-0.69-2.102-0.951-4.305-0.781-6.599l0.008-0.121c0.171-2.298,0.762-4.442,1.76-6.438
		c1.001-1.99,2.306-3.7,3.908-5.122c1.608-1.418,3.488-2.495,5.627-3.228c2.146-0.73,4.471-1.005,6.969-0.814
		c3.067,0.23,5.57,0.902,7.513,2.021c1.944,1.118,3.616,2.585,5.022,4.395l-6.081,5.623c-0.971-1.167-1.979-2.115-3.041-2.844
		c-1.062-0.729-2.419-1.156-4.071-1.277c-1.173-0.087-2.245,0.063-3.23,0.455c-0.985,0.391-1.858,0.967-2.624,1.718
		c-0.766,0.758-1.384,1.652-1.843,2.691c-0.466,1.039-0.739,2.165-0.83,3.375l-0.008,0.121c-0.096,1.251,0.008,2.435,0.312,3.553
		c0.299,1.118,0.784,2.112,1.448,2.969c0.671,0.864,1.486,1.562,2.457,2.104c0.974,0.538,2.089,0.855,3.34,0.947
		c1.532,0.117,2.897-0.095,4.092-0.638c1.197-0.538,2.396-1.289,3.605-2.252l4.975,5.847c-1.702,1.619-3.603,2.908-5.703,3.863
		C436.729,503.399,434.068,503.757,430.837,503.512z"/>
	<path fill="#C1E4EB" d="M452.354,459.989l9.195,0.689l-3.318,44.161l-9.194-0.69L452.354,459.989z"/>
	<path fill="#C1E4EB" d="M468.238,472.982l9.194,0.694l-2.436,32.426l-9.193-0.69L468.238,472.982z M468.873,461.232l9.685,0.725
		l-0.614,8.167l-9.684-0.728L468.873,461.232z"/>
	<path fill="#C1E4EB" d="M484.564,474.209l9.194,0.692l-0.35,4.637c0.576-0.65,1.202-1.266,1.873-1.85
		c0.675-0.58,1.414-1.089,2.215-1.517c0.805-0.43,1.677-0.751,2.627-0.968c0.952-0.217,2.011-0.276,3.183-0.188
		c3.507,0.261,6.139,1.531,7.894,3.812c1.752,2.287,2.495,5.297,2.211,9.052l-1.576,20.989l-9.199-0.688l1.354-18.049
		c0.162-2.168-0.201-3.849-1.085-5.027s-2.214-1.831-3.987-1.968c-1.778-0.133-3.221,0.313-4.334,1.342
		c-1.107,1.028-1.748,2.628-1.911,4.805l-1.354,18.044l-9.194-0.689L484.564,474.209z"/>
	<path fill="#C1E4EB" d="M521.163,476.961l9.194,0.689l-2.435,32.43l-9.194-0.693L521.163,476.961z M521.805,465.202l9.68,0.729
		l-0.614,8.163l-9.68-0.726L521.805,465.202z"/>
	<path fill="#C1E4EB" d="M550.314,512.483c-2.419-0.182-4.634-0.792-6.643-1.835c-2.015-1.039-3.712-2.373-5.085-4
		c-1.376-1.627-2.411-3.488-3.109-5.589c-0.689-2.102-0.951-4.3-0.78-6.602l0.007-0.117c0.172-2.294,0.764-4.443,1.761-6.438
		c1.005-1.99,2.306-3.7,3.913-5.122c1.604-1.418,3.483-2.495,5.626-3.227s4.467-1.005,6.966-0.815
		c3.066,0.231,5.568,0.902,7.511,2.021c1.945,1.118,3.621,2.586,5.024,4.395l-6.082,5.623c-0.968-1.168-1.979-2.116-3.041-2.844
		c-1.062-0.729-2.419-1.157-4.072-1.278c-1.171-0.087-2.244,0.064-3.23,0.455c-0.984,0.391-1.856,0.967-2.619,1.718
		c-0.771,0.758-1.385,1.653-1.847,2.691c-0.467,1.039-0.74,2.165-0.831,3.375l-0.007,0.121c-0.096,1.251,0.007,2.435,0.312,3.553
		c0.304,1.119,0.784,2.112,1.451,2.969c0.667,0.865,1.482,1.562,2.457,2.104c0.972,0.538,2.085,0.856,3.337,0.948
		c1.531,0.112,2.896-0.096,4.092-0.639c1.197-0.538,2.396-1.289,3.604-2.252l4.975,5.848c-1.697,1.618-3.602,2.907-5.701,3.863
		C556.205,512.37,553.544,512.73,550.314,512.483z"/>
	<path fill="#C1E4EB" d="M579.418,514.551c-2.295-0.17-4.618-0.739-6.954-1.71c-2.344-0.964-4.538-2.377-6.591-4.235l4.388-5.755
		c1.677,1.425,3.367,2.523,5.077,3.302c1.702,0.777,3.32,1.222,4.854,1.339c1.331,0.1,2.324-0.046,2.984-0.442
		c0.659-0.396,1.016-0.96,1.067-1.685l0.009-0.118c0.038-0.484-0.113-0.921-0.443-1.314c-0.334-0.392-0.808-0.735-1.41-1.043
		c-0.611-0.312-1.305-0.617-2.094-0.917c-0.788-0.304-1.615-0.63-2.479-0.979c-1.106-0.409-2.214-0.887-3.328-1.437
		c-1.11-0.554-2.107-1.236-2.98-2.048c-0.868-0.819-1.558-1.793-2.059-2.924c-0.509-1.134-0.697-2.486-0.576-4.058l0.008-0.121
		c0.125-1.657,0.546-3.09,1.267-4.313c0.721-1.223,1.652-2.241,2.782-3.05c1.138-0.804,2.436-1.376,3.902-1.714
		s3.024-0.438,4.683-0.317c2.055,0.154,4.113,0.645,6.18,1.471c2.066,0.823,3.947,1.889,5.632,3.192l-3.985,6.082
		c-1.543-1.043-3.062-1.899-4.55-2.561c-1.493-0.659-2.824-1.031-3.992-1.122c-1.126-0.083-1.994,0.068-2.59,0.443
		c-0.6,0.384-0.921,0.892-0.967,1.536l-0.009,0.121c-0.033,0.446,0.118,0.856,0.455,1.221c0.342,0.372,0.797,0.729,1.385,1.077
		c0.575,0.349,1.255,0.692,2.018,1.03c0.77,0.346,1.581,0.69,2.449,1.035c1.1,0.447,2.222,0.968,3.352,1.56
		c1.13,0.591,2.131,1.285,3.003,2.081c0.876,0.797,1.573,1.739,2.102,2.836c0.526,1.093,0.731,2.385,0.622,3.875l-0.009,0.122
		c-0.137,1.814-0.567,3.354-1.288,4.618c-0.725,1.262-1.685,2.277-2.875,3.041c-1.197,0.762-2.562,1.296-4.105,1.61
		C582.796,514.593,581.155,514.682,579.418,514.551z"/>
</g>
</svg>
